<?xml version="1.0" encoding="utf-8"?>
<!-- Generator: Adobe Illustrator 16.0.3, SVG Export Plug-In . SVG Version: 6.00 Build 0)  -->
<!DOCTYPE svg PUBLIC "-//W3C//DTD SVG 1.1//EN" "http://www.w3.org/Graphics/SVG/1.1/DTD/svg11.dtd">
<svg version="1.1" id="Layer_1" xmlns="http://www.w3.org/2000/svg" xmlns:xlink="http://www.w3.org/1999/xlink" x="0px" y="0px"
	 width="1300px" height="300px" viewBox="0 0 1300 300" style="enable-background:new 0 0 1300 300;" xml:space="preserve">
<g>
	<path d="M39.019043,3.4375v230.0664063H0V3.4375H39.019043z"/>
</g>
<g>
	<path d="M165.0742188,150.8876953c0,45.7939453-31.1220703,82.3164063-82.722168,82.3164063
		c-51.5961914,0-81.3955078-36.5224609-81.3955078-82.3164063c0-45.4707031,30.2836914-82.8754883,80.9150391-82.8754883
		C132.503418,68.012207,165.0742188,105.4169922,165.0742188,150.8876953z M38.9794922,150.8876953
		c0,24.1904297,14.5097656,46.7617188,43.215332,46.7617188c28.6972656,0,43.2109375-22.5712891,43.2109375-46.7617188
		c0-23.8632813-16.765625-47.0844727-43.2109375-47.0844727C53.8125,103.8032227,38.9794922,127.0244141,38.9794922,150.8876953z"/>
</g>
<g>
	<path d="M291.3339844,151.4033203c0,45.7939453-31.5390625,81.8486328-83.1391602,81.8486328
		c-51.5961914,0-82.1708984-36.0546875-82.1708984-81.8486328c0-45.4707031,31.6064453-82.8793945,82.237793-82.8793945
		C258.8891602,68.5239258,291.3339844,105.9326172,291.3339844,151.4033203z M165.3696289,151.4033203
		c0,24.1865234,14.5136719,46.7617188,43.2109375,46.7617188c28.7050781,0,43.215332-22.5751953,43.215332-46.7617188
		c0-23.862793-16.7695313-47.0805664-43.215332-47.0805664
		C180.2060547,104.3227539,165.3696289,127.5405273,165.3696289,151.4033203z"/>
</g>
<g>
	<path d="M416.3188477,151.9150391c0,45.7939453-30.559082,81.3369141-82.1552734,81.3369141
		c-51.6000977,0-82.1708984-36.0546875-82.1708984-81.8486328c0-45.4707031,31.6025391-82.8793945,82.2338867-82.8793945
		S416.3188477,106.4443359,416.3188477,151.9150391z M291.3339844,151.4033203
		c0,24.1865234,14.5141602,46.7617188,43.215332,46.7617188s43.215332-22.5751953,43.215332-46.7617188
		c0-23.862793-16.7695313-47.0805664-43.215332-47.0805664
		C306.1708984,104.3227539,291.3339844,127.5405273,291.3339844,151.4033203z"/>
</g>
<g>
	<path d="M504.7329102,298V67.9335938h39.0229492V298l-19.5092773-14.9941406L504.7329102,298z"/>
</g>
<g>
	<path d="M378.6855469,150.5493164c0-45.793457,31.1181641-82.3168945,82.7143555-82.3168945
		c51.6000977,0,81.3994141,36.5234375,81.3994141,82.3168945c0,45.4711914-30.2836914,82.8754883-80.9150391,82.8754883
		C411.2563477,233.4248047,378.6855469,196.0205078,378.6855469,150.5493164z M504.7763672,150.5493164
		c0-24.1899414-14.5136719-46.762207-43.2109375-46.762207c-28.7055664,0-43.215332,22.5722656-43.215332,46.762207
		c0,23.862793,16.7695313,47.0844727,43.215332,47.0844727
		C489.9394531,197.6337891,504.7763672,174.4121094,504.7763672,150.5493164z"/>
</g>
<g>
	<path d="M993.9130859,3.6894531v135.6484375l59.7402344-71.1523438h50.5214844l-9.6445313,9.5576172l-64.8183594,72.5581055
		l73.8496094,81.269043l1.9287109,1.8857422h-50.2148438l-61.3623047-70.9003906v70.9003906h-39.3417969V3.6894531H993.9130859z"/>
</g>
<g>
	<path d="M1148.3056641,210.4980469c0,30.6357422-46.4375,30.6357422-46.4375,0S1148.3056641,179.8623047,1148.3056641,210.4980469z
		"/>
</g>
<g>
	<path d="M1196.6992188,36.3623047c0,30.6381836-46.4433594,30.6381836-46.4433594,0
		C1150.2558594,5.7285156,1196.6992188,5.7285156,1196.6992188,36.3623047z M1153.8066406,68.1855469v165.3183594h39.3417969
		V68.2485352L1153.8066406,68.1855469z"/>
</g>
<g>
	<path d="M1257.9335938,3.6894531v64.559082H1300v33.8579102h-42.3886719v68.6884766
		c0,15.1591797,8.3847656,22.5761719,20.6425781,22.5761719c6.1259766,0,15.9433594-3.2402344,21.7460938-6.1455078v40.8769531
		c-11.2822266,4.515625-12.3925781,5.03125-24.328125,5.3535156c-34.5078125,1.2919922-57.0791016-22.9931641-57.0791016-62.6611328
		v-68.6884766h-26.3417969V68.2485352h26.3417969V3.6894531H1257.9335938z"/>
</g>
<g>
	<path d="M880.0058594,150.8208008c0,45.793457-31.2792969,82.8793945-82.8759766,82.8793945
		c-51.5996094,0-82.5566406-37.0859375-82.5566406-82.8793945c0-45.4707031,31.6025391-82.8793945,82.234375-82.8793945
		C847.4345703,67.9414063,880.0058594,105.3500977,880.0058594,150.8208008z M753.9150391,150.8208008
		c0,24.1860352,14.5136719,46.762207,43.2148438,46.762207s43.2119141-22.5761719,43.2119141-46.762207
		c0-23.8632813-16.765625-47.0805664-43.2119141-47.0805664
		C768.7519531,103.7402344,753.9150391,126.9575195,753.9150391,150.8208008z"/>
</g>
<g>
	<path d="M880.0058594,68.1855469l-0.0947266,22.5717773c12.2587891-19.6708984,28.7050781-22.5717773,44.8291016-22.5717773
		c16.4472656,0,32.2480469,6.4477539,40.9560547,15.1552734l-11.125,37.4995117
		c-6.1015625-11.2114258-22.0449219-15.7460938-34.9482422-15.7460938c-20.6357422,0-39.7119141,13.0732422-39.7119141,42.4199219
		v85.9418945h-39.3417969V68.1855469H880.0058594z"/>
</g>
<g>
	<path d="M610.5073242,233.4560547v-85.1347656c0-20.9619141-10.9589844-39.9912109-32.5708008-39.9912109
		c-21.2807617,0-33.8579102,19.0292969-33.8579102,39.9912109v85.1347656h-39.3457031V74.1455078h36.4443359l2.9013672,19.3515625
		c8.3847656-16.1240234,26.7646484-21.9301758,41.9199219-21.9301758c19.0292969,0,38.0585938,7.7431641,47.0888672,29.6694336
		c14.1870117-22.5717773,32.5708008-29.0239258,53.206543-29.0239258c45.1513672,0,67.4003906,27.7329102,67.4003906,75.4633789
		l-4.6289063,69.65625l-15.7900391-18.1386719l-18.4970703-52.9902344c0-20.9619141-9.1328125-37.2275391-30.4179688-37.2275391
		s-34.5078125,18.3837891-34.5078125,39.3457031v85.1347656H610.5073242z"/>
</g>
</svg>
